<svg id="Layer_1" data-name="Layer 1" xmlns="http://www.w3.org/2000/svg" xmlns:xlink="http://www.w3.org/1999/xlink" viewBox="0 0 1920 643"><defs><style>.cls-1{fill:url(#linear-gradient);}.cls-2,.cls-6{fill:#fff;}.cls-3{font-size:58.91px;}.cls-3,.cls-7{fill:#545353;font-family:FuturaBT-Bold, Futura Md BT;font-weight:700;}.cls-4{letter-spacing:-0.02em;}.cls-5{letter-spacing:0em;}.cls-6,.cls-9{stroke:#2b2b2b;stroke-miterlimit:10;stroke-width:4px;}.cls-7{font-size:35.81px;}.cls-8{letter-spacing:-0.08em;}.cls-9{fill:none;}</style><linearGradient id="linear-gradient" y1="322" x2="1920" y2="322" gradientUnits="userSpaceOnUse"><stop offset="0.13" stop-color="#269"/><stop offset="0.38" stop-color="#495196"/><stop offset="0.76" stop-color="#7e3391"/><stop offset="0.95" stop-color="#93278f"/></linearGradient></defs><title>Artboard 1</title><path class="cls-1" d="M0,643.5S313.12,531.11,876,415.19C1451,296.77,1920,.5,1920,.5v643Z"/><path d="M1620.68,93.25v452.5c0,25.72-20.36,46.75-45.26,46.75H1380.26c-24.9,0-45.26-21-45.26-46.75V93.25c0-25.72,20.36-46.75,45.26-46.75h195.16C1600.32,46.5,1620.68,67.53,1620.68,93.25Z"/><rect class="cls-2" x="1351.69" y="60.52" width="250.97" height="511.29" rx="29.12" ry="29.12"/><text class="cls-3" transform="translate(120.61 164.07)">LEARN AND GROW <tspan x="0" y="70.69">WITH BEST TE</tspan><tspan class="cls-4" x="401.13" y="70.69">A</tspan><tspan class="cls-5" x="442.64" y="70.69">CHERS </tspan><tspan x="0" y="141.38">AROUND </tspan><tspan class="cls-4" x="290.42" y="141.38">Y</tspan><tspan x="324.56" y="141.38">OU</tspan></text><path d="M1435.17,53.81l0,15.84c0,7.32,5.29,13.26,11.84,13.26h76.42c5.07,0,9.17-4.6,9.17-10.26V53.81Z"/><rect class="cls-6" x="121.64" y="357.32" width="224.99" height="71.18" rx="35.59" ry="35.59"/><text class="cls-7" transform="translate(145.7 406.28)">Find <tspan class="cls-8" x="88.87" y="0">T</tspan><tspan x="105.76" y="0">utor</tspan></text><line class="cls-9" x1="393" y1="464.5" x2="393" y2="462.5"/></svg>